<?xml version="1.0" encoding="utf-8"?>
<svg xmlns="http://www.w3.org/2000/svg" xmlns:xlink="http://www.w3.org/1999/xlink" width="600" height="400" viewBox="0 0 2400 1600">
<defs>
  <clipPath id="clip400">
    <rect x="0" y="0" width="2400" height="1600"/>
  </clipPath>
</defs>
<path clip-path="url(#clip400)" d="M0 1600 L2400 1600 L2400 0 L0 0  Z" fill="#ffffff" fill-rule="evenodd" fill-opacity="1"/>
<defs>
  <clipPath id="clip401">
    <rect x="189" y="123" width="2164" height="1364"/>
  </clipPath>
</defs>
<path clip-path="url(#clip400)" d="M189.496 1486.45 L2352.76 1486.45 L2352.76 123.472 L189.496 123.472  Z" fill="#ffffff" fill-rule="evenodd" fill-opacity="1"/>
<polyline clip-path="url(#clip401)" style="stroke:#000000; stroke-linecap:round; stroke-linejoin:round; stroke-width:2; stroke-opacity:0.1; fill:none" points="248.677,1486.45 248.677,123.472 "/>
<polyline clip-path="url(#clip401)" style="stroke:#000000; stroke-linecap:round; stroke-linejoin:round; stroke-width:2; stroke-opacity:0.1; fill:none" points="759.391,1486.45 759.391,123.472 "/>
<polyline clip-path="url(#clip401)" style="stroke:#000000; stroke-linecap:round; stroke-linejoin:round; stroke-width:2; stroke-opacity:0.1; fill:none" points="1270.1,1486.45 1270.1,123.472 "/>
<polyline clip-path="url(#clip401)" style="stroke:#000000; stroke-linecap:round; stroke-linejoin:round; stroke-width:2; stroke-opacity:0.1; fill:none" points="1780.82,1486.45 1780.82,123.472 "/>
<polyline clip-path="url(#clip401)" style="stroke:#000000; stroke-linecap:round; stroke-linejoin:round; stroke-width:2; stroke-opacity:0.1; fill:none" points="2291.53,1486.45 2291.53,123.472 "/>
<polyline clip-path="url(#clip401)" style="stroke:#000000; stroke-linecap:round; stroke-linejoin:round; stroke-width:2; stroke-opacity:0.1; fill:none" points="189.496,1241.83 2352.76,1241.83 "/>
<polyline clip-path="url(#clip401)" style="stroke:#000000; stroke-linecap:round; stroke-linejoin:round; stroke-width:2; stroke-opacity:0.1; fill:none" points="189.496,862.96 2352.76,862.96 "/>
<polyline clip-path="url(#clip401)" style="stroke:#000000; stroke-linecap:round; stroke-linejoin:round; stroke-width:2; stroke-opacity:0.1; fill:none" points="189.496,484.087 2352.76,484.087 "/>
<polyline clip-path="url(#clip400)" style="stroke:#000000; stroke-linecap:round; stroke-linejoin:round; stroke-width:4; stroke-opacity:1; fill:none" points="189.496,1486.45 2352.76,1486.45 "/>
<polyline clip-path="url(#clip400)" style="stroke:#000000; stroke-linecap:round; stroke-linejoin:round; stroke-width:4; stroke-opacity:1; fill:none" points="248.677,1486.45 248.677,1467.55 "/>
<polyline clip-path="url(#clip400)" style="stroke:#000000; stroke-linecap:round; stroke-linejoin:round; stroke-width:4; stroke-opacity:1; fill:none" points="759.391,1486.45 759.391,1467.55 "/>
<polyline clip-path="url(#clip400)" style="stroke:#000000; stroke-linecap:round; stroke-linejoin:round; stroke-width:4; stroke-opacity:1; fill:none" points="1270.1,1486.45 1270.1,1467.55 "/>
<polyline clip-path="url(#clip400)" style="stroke:#000000; stroke-linecap:round; stroke-linejoin:round; stroke-width:4; stroke-opacity:1; fill:none" points="1780.82,1486.45 1780.82,1467.55 "/>
<polyline clip-path="url(#clip400)" style="stroke:#000000; stroke-linecap:round; stroke-linejoin:round; stroke-width:4; stroke-opacity:1; fill:none" points="2291.53,1486.45 2291.53,1467.55 "/>
<path clip-path="url(#clip400)" d="M248.677 1517.37 Q245.066 1517.37 243.238 1520.93 Q241.432 1524.47 241.432 1531.6 Q241.432 1538.71 243.238 1542.27 Q245.066 1545.82 248.677 1545.82 Q252.312 1545.82 254.117 1542.27 Q255.946 1538.71 255.946 1531.6 Q255.946 1524.47 254.117 1520.93 Q252.312 1517.37 248.677 1517.37 M248.677 1513.66 Q254.488 1513.66 257.543 1518.27 Q260.622 1522.85 260.622 1531.6 Q260.622 1540.33 257.543 1544.94 Q254.488 1549.52 248.677 1549.52 Q242.867 1549.52 239.789 1544.94 Q236.733 1540.33 236.733 1531.6 Q236.733 1522.85 239.789 1518.27 Q242.867 1513.66 248.677 1513.66 Z" fill="#000000" fill-rule="nonzero" fill-opacity="1" /><path clip-path="url(#clip400)" d="M738.662 1544.91 L754.981 1544.91 L754.981 1548.85 L733.037 1548.85 L733.037 1544.91 Q735.699 1542.16 740.282 1537.53 Q744.889 1532.88 746.069 1531.53 Q748.315 1529.01 749.194 1527.27 Q750.097 1525.51 750.097 1523.82 Q750.097 1521.07 748.153 1519.33 Q746.231 1517.6 743.129 1517.6 Q740.93 1517.6 738.477 1518.36 Q736.046 1519.13 733.268 1520.68 L733.268 1515.95 Q736.092 1514.82 738.546 1514.24 Q741 1513.66 743.037 1513.66 Q748.407 1513.66 751.602 1516.35 Q754.796 1519.03 754.796 1523.52 Q754.796 1525.65 753.986 1527.57 Q753.199 1529.47 751.092 1532.07 Q750.514 1532.74 747.412 1535.95 Q744.31 1539.15 738.662 1544.91 Z" fill="#000000" fill-rule="nonzero" fill-opacity="1" /><path clip-path="url(#clip400)" d="M764.842 1514.29 L783.199 1514.29 L783.199 1518.22 L769.125 1518.22 L769.125 1526.7 Q770.143 1526.35 771.162 1526.19 Q772.18 1526 773.199 1526 Q778.986 1526 782.365 1529.17 Q785.745 1532.34 785.745 1537.76 Q785.745 1543.34 782.273 1546.44 Q778.801 1549.52 772.481 1549.52 Q770.305 1549.52 768.037 1549.15 Q765.791 1548.78 763.384 1548.04 L763.384 1543.34 Q765.467 1544.47 767.69 1545.03 Q769.912 1545.58 772.389 1545.58 Q776.393 1545.58 778.731 1543.48 Q781.069 1541.37 781.069 1537.76 Q781.069 1534.15 778.731 1532.04 Q776.393 1529.94 772.389 1529.94 Q770.514 1529.94 768.639 1530.35 Q766.787 1530.77 764.842 1531.65 L764.842 1514.29 Z" fill="#000000" fill-rule="nonzero" fill-opacity="1" /><path clip-path="url(#clip400)" d="M1244.8 1514.29 L1263.16 1514.29 L1263.16 1518.22 L1249.09 1518.22 L1249.09 1526.7 Q1250.1 1526.35 1251.12 1526.19 Q1252.14 1526 1253.16 1526 Q1258.95 1526 1262.33 1529.17 Q1265.71 1532.34 1265.71 1537.76 Q1265.71 1543.34 1262.23 1546.44 Q1258.76 1549.52 1252.44 1549.52 Q1250.27 1549.52 1248 1549.15 Q1245.75 1548.78 1243.35 1548.04 L1243.35 1543.34 Q1245.43 1544.47 1247.65 1545.03 Q1249.87 1545.58 1252.35 1545.58 Q1256.35 1545.58 1258.69 1543.48 Q1261.03 1541.37 1261.03 1537.76 Q1261.03 1534.15 1258.69 1532.04 Q1256.35 1529.94 1252.35 1529.94 Q1250.47 1529.94 1248.6 1530.35 Q1246.75 1530.77 1244.8 1531.65 L1244.8 1514.29 Z" fill="#000000" fill-rule="nonzero" fill-opacity="1" /><path clip-path="url(#clip400)" d="M1284.92 1517.37 Q1281.31 1517.37 1279.48 1520.93 Q1277.67 1524.47 1277.67 1531.6 Q1277.67 1538.71 1279.48 1542.27 Q1281.31 1545.82 1284.92 1545.82 Q1288.55 1545.82 1290.36 1542.27 Q1292.19 1538.71 1292.19 1531.6 Q1292.19 1524.47 1290.36 1520.93 Q1288.55 1517.37 1284.92 1517.37 M1284.92 1513.66 Q1290.73 1513.66 1293.78 1518.27 Q1296.86 1522.85 1296.86 1531.6 Q1296.86 1540.33 1293.78 1544.94 Q1290.73 1549.52 1284.92 1549.52 Q1279.11 1549.52 1276.03 1544.94 Q1272.97 1540.33 1272.97 1531.6 Q1272.97 1522.85 1276.03 1518.27 Q1279.11 1513.66 1284.92 1513.66 Z" fill="#000000" fill-rule="nonzero" fill-opacity="1" /><path clip-path="url(#clip400)" d="M1754.67 1514.29 L1776.89 1514.29 L1776.89 1516.28 L1764.35 1548.85 L1759.46 1548.85 L1771.27 1518.22 L1754.67 1518.22 L1754.67 1514.29 Z" fill="#000000" fill-rule="nonzero" fill-opacity="1" /><path clip-path="url(#clip400)" d="M1786.06 1514.29 L1804.42 1514.29 L1804.42 1518.22 L1790.34 1518.22 L1790.34 1526.7 Q1791.36 1526.35 1792.38 1526.19 Q1793.4 1526 1794.42 1526 Q1800.2 1526 1803.58 1529.17 Q1806.96 1532.34 1806.96 1537.76 Q1806.96 1543.34 1803.49 1546.44 Q1800.02 1549.52 1793.7 1549.52 Q1791.52 1549.52 1789.26 1549.15 Q1787.01 1548.78 1784.6 1548.04 L1784.6 1543.34 Q1786.69 1544.47 1788.91 1545.03 Q1791.13 1545.58 1793.61 1545.58 Q1797.61 1545.58 1799.95 1543.48 Q1802.29 1541.37 1802.29 1537.76 Q1802.29 1534.15 1799.95 1532.04 Q1797.61 1529.94 1793.61 1529.94 Q1791.73 1529.94 1789.86 1530.35 Q1788.01 1530.77 1786.06 1531.65 L1786.06 1514.29 Z" fill="#000000" fill-rule="nonzero" fill-opacity="1" /><path clip-path="url(#clip400)" d="M2251.14 1544.91 L2258.78 1544.91 L2258.78 1518.55 L2250.47 1520.21 L2250.47 1515.95 L2258.73 1514.29 L2263.41 1514.29 L2263.41 1544.91 L2271.05 1544.91 L2271.05 1548.85 L2251.14 1548.85 L2251.14 1544.91 Z" fill="#000000" fill-rule="nonzero" fill-opacity="1" /><path clip-path="url(#clip400)" d="M2290.49 1517.37 Q2286.88 1517.37 2285.05 1520.93 Q2283.24 1524.47 2283.24 1531.6 Q2283.24 1538.71 2285.05 1542.27 Q2286.88 1545.82 2290.49 1545.82 Q2294.12 1545.82 2295.93 1542.27 Q2297.76 1538.71 2297.76 1531.6 Q2297.76 1524.47 2295.93 1520.93 Q2294.12 1517.37 2290.49 1517.37 M2290.49 1513.66 Q2296.3 1513.66 2299.36 1518.27 Q2302.43 1522.85 2302.43 1531.6 Q2302.43 1540.33 2299.36 1544.94 Q2296.3 1549.52 2290.49 1549.52 Q2284.68 1549.52 2281.6 1544.94 Q2278.55 1540.33 2278.55 1531.6 Q2278.55 1522.85 2281.6 1518.27 Q2284.68 1513.66 2290.49 1513.66 Z" fill="#000000" fill-rule="nonzero" fill-opacity="1" /><path clip-path="url(#clip400)" d="M2320.65 1517.37 Q2317.04 1517.37 2315.21 1520.93 Q2313.41 1524.47 2313.41 1531.6 Q2313.41 1538.71 2315.21 1542.27 Q2317.04 1545.82 2320.65 1545.82 Q2324.29 1545.82 2326.09 1542.27 Q2327.92 1538.71 2327.92 1531.6 Q2327.92 1524.47 2326.09 1520.93 Q2324.29 1517.37 2320.65 1517.37 M2320.65 1513.66 Q2326.46 1513.66 2329.52 1518.27 Q2332.6 1522.85 2332.6 1531.6 Q2332.6 1540.33 2329.52 1544.94 Q2326.46 1549.52 2320.65 1549.52 Q2314.84 1549.52 2311.76 1544.94 Q2308.71 1540.33 2308.71 1531.6 Q2308.71 1522.85 2311.76 1518.27 Q2314.84 1513.66 2320.65 1513.66 Z" fill="#000000" fill-rule="nonzero" fill-opacity="1" /><polyline clip-path="url(#clip400)" style="stroke:#000000; stroke-linecap:round; stroke-linejoin:round; stroke-width:4; stroke-opacity:1; fill:none" points="189.496,1486.45 189.496,123.472 "/>
<polyline clip-path="url(#clip400)" style="stroke:#000000; stroke-linecap:round; stroke-linejoin:round; stroke-width:4; stroke-opacity:1; fill:none" points="189.496,1241.83 208.394,1241.83 "/>
<polyline clip-path="url(#clip400)" style="stroke:#000000; stroke-linecap:round; stroke-linejoin:round; stroke-width:4; stroke-opacity:1; fill:none" points="189.496,862.96 208.394,862.96 "/>
<polyline clip-path="url(#clip400)" style="stroke:#000000; stroke-linecap:round; stroke-linejoin:round; stroke-width:4; stroke-opacity:1; fill:none" points="189.496,484.087 208.394,484.087 "/>
<path clip-path="url(#clip400)" d="M52.1336 1261.63 L59.7725 1261.63 L59.7725 1235.26 L51.4623 1236.93 L51.4623 1232.67 L59.7262 1231 L64.4021 1231 L64.4021 1261.63 L72.0409 1261.63 L72.0409 1265.56 L52.1336 1265.56 L52.1336 1261.63 Z" fill="#000000" fill-rule="nonzero" fill-opacity="1" /><path clip-path="url(#clip400)" d="M91.4853 1234.08 Q87.8742 1234.08 86.0455 1237.65 Q84.2399 1241.19 84.2399 1248.32 Q84.2399 1255.42 86.0455 1258.99 Q87.8742 1262.53 91.4853 1262.53 Q95.1195 1262.53 96.925 1258.99 Q98.7537 1255.42 98.7537 1248.32 Q98.7537 1241.19 96.925 1237.65 Q95.1195 1234.08 91.4853 1234.08 M91.4853 1230.38 Q97.2954 1230.38 100.351 1234.98 Q103.43 1239.57 103.43 1248.32 Q103.43 1257.04 100.351 1261.65 Q97.2954 1266.23 91.4853 1266.23 Q85.6751 1266.23 82.5964 1261.65 Q79.5409 1257.04 79.5409 1248.32 Q79.5409 1239.57 82.5964 1234.98 Q85.6751 1230.38 91.4853 1230.38 Z" fill="#000000" fill-rule="nonzero" fill-opacity="1" /><path clip-path="url(#clip400)" d="M103.43 1224.48 L127.541 1224.48 L127.541 1227.68 L103.43 1227.68 L103.43 1224.48 Z" fill="#000000" fill-rule="nonzero" fill-opacity="1" /><path clip-path="url(#clip400)" d="M143.866 1224.82 Q141.158 1224.82 139.597 1226.26 Q138.055 1227.71 138.055 1230.25 Q138.055 1232.79 139.597 1234.24 Q141.158 1235.69 143.866 1235.69 Q146.575 1235.69 148.136 1234.24 Q149.697 1232.77 149.697 1230.25 Q149.697 1227.71 148.136 1226.26 Q146.593 1224.82 143.866 1224.82 M140.067 1223.2 Q137.622 1222.6 136.249 1220.92 Q134.895 1219.25 134.895 1216.84 Q134.895 1213.48 137.284 1211.52 Q139.691 1209.56 143.866 1209.56 Q148.06 1209.56 150.449 1211.52 Q152.838 1213.48 152.838 1216.84 Q152.838 1219.25 151.465 1220.92 Q150.111 1222.6 147.684 1223.2 Q150.43 1223.84 151.954 1225.7 Q153.496 1227.56 153.496 1230.25 Q153.496 1234.33 150.994 1236.52 Q148.512 1238.7 143.866 1238.7 Q139.221 1238.7 136.719 1236.52 Q134.237 1234.33 134.237 1230.25 Q134.237 1227.56 135.779 1225.7 Q137.321 1223.84 140.067 1223.2 M138.675 1217.2 Q138.675 1219.38 140.03 1220.6 Q141.403 1221.83 143.866 1221.83 Q146.311 1221.83 147.684 1220.6 Q149.076 1219.38 149.076 1217.2 Q149.076 1215.02 147.684 1213.8 Q146.311 1212.57 143.866 1212.57 Q141.403 1212.57 140.03 1213.8 Q138.675 1215.02 138.675 1217.2 Z" fill="#000000" fill-rule="nonzero" fill-opacity="1" /><path clip-path="url(#clip400)" d="M51.9267 882.753 L59.5656 882.753 L59.5656 856.387 L51.2554 858.054 L51.2554 853.795 L59.5193 852.128 L64.1952 852.128 L64.1952 882.753 L71.834 882.753 L71.834 886.688 L51.9267 886.688 L51.9267 882.753 Z" fill="#000000" fill-rule="nonzero" fill-opacity="1" /><path clip-path="url(#clip400)" d="M91.2784 855.207 Q87.6673 855.207 85.8386 858.772 Q84.033 862.313 84.033 869.443 Q84.033 876.549 85.8386 880.114 Q87.6673 883.656 91.2784 883.656 Q94.9126 883.656 96.7182 880.114 Q98.5468 876.549 98.5468 869.443 Q98.5468 862.313 96.7182 858.772 Q94.9126 855.207 91.2784 855.207 M91.2784 851.503 Q97.0885 851.503 100.144 856.109 Q103.223 860.693 103.223 869.443 Q103.223 878.17 100.144 882.776 Q97.0885 887.359 91.2784 887.359 Q85.4682 887.359 82.3895 882.776 Q79.334 878.17 79.334 869.443 Q79.334 860.693 82.3895 856.109 Q85.4682 851.503 91.2784 851.503 Z" fill="#000000" fill-rule="nonzero" fill-opacity="1" /><path clip-path="url(#clip400)" d="M103.223 845.604 L127.334 845.604 L127.334 848.802 L103.223 848.802 L103.223 845.604 Z" fill="#000000" fill-rule="nonzero" fill-opacity="1" /><path clip-path="url(#clip400)" d="M144.13 843.724 Q141.572 843.724 140.067 845.473 Q138.581 847.222 138.581 850.269 Q138.581 853.297 140.067 855.065 Q141.572 856.814 144.13 856.814 Q146.688 856.814 148.173 855.065 Q149.678 853.297 149.678 850.269 Q149.678 847.222 148.173 845.473 Q146.688 843.724 144.13 843.724 M151.672 831.818 L151.672 835.279 Q150.242 834.602 148.775 834.244 Q147.327 833.887 145.898 833.887 Q142.136 833.887 140.142 836.426 Q138.168 838.965 137.885 844.1 Q138.995 842.463 140.669 841.598 Q142.343 840.714 144.355 840.714 Q148.587 840.714 151.032 843.291 Q153.496 845.849 153.496 850.269 Q153.496 854.594 150.938 857.209 Q148.38 859.823 144.13 859.823 Q139.258 859.823 136.682 856.099 Q134.105 852.356 134.105 845.266 Q134.105 838.608 137.265 834.658 Q140.425 830.69 145.747 830.69 Q147.177 830.69 148.625 830.972 Q150.092 831.254 151.672 831.818 Z" fill="#000000" fill-rule="nonzero" fill-opacity="1" /><path clip-path="url(#clip400)" d="M51.6634 503.879 L59.3023 503.879 L59.3023 477.513 L50.9921 479.18 L50.9921 474.921 L59.256 473.254 L63.9319 473.254 L63.9319 503.879 L71.5707 503.879 L71.5707 507.814 L51.6634 507.814 L51.6634 503.879 Z" fill="#000000" fill-rule="nonzero" fill-opacity="1" /><path clip-path="url(#clip400)" d="M91.0151 476.333 Q87.404 476.333 85.5753 479.898 Q83.7697 483.439 83.7697 490.569 Q83.7697 497.675 85.5753 501.24 Q87.404 504.782 91.0151 504.782 Q94.6493 504.782 96.4548 501.24 Q98.2835 497.675 98.2835 490.569 Q98.2835 483.439 96.4548 479.898 Q94.6493 476.333 91.0151 476.333 M91.0151 472.629 Q96.8252 472.629 99.8808 477.236 Q102.959 481.819 102.959 490.569 Q102.959 499.296 99.8808 503.902 Q96.8252 508.486 91.0151 508.486 Q85.2049 508.486 82.1262 503.902 Q79.0707 499.296 79.0707 490.569 Q79.0707 481.819 82.1262 477.236 Q85.2049 472.629 91.0151 472.629 Z" fill="#000000" fill-rule="nonzero" fill-opacity="1" /><path clip-path="url(#clip400)" d="M102.959 466.731 L127.071 466.731 L127.071 469.928 L102.959 469.928 L102.959 466.731 Z" fill="#000000" fill-rule="nonzero" fill-opacity="1" /><path clip-path="url(#clip400)" d="M145.71 455.634 L136.118 470.624 L145.71 470.624 L145.71 455.634 M144.713 452.324 L149.49 452.324 L149.49 470.624 L153.496 470.624 L153.496 473.784 L149.49 473.784 L149.49 480.404 L145.71 480.404 L145.71 473.784 L133.033 473.784 L133.033 470.116 L144.713 452.324 Z" fill="#000000" fill-rule="nonzero" fill-opacity="1" /><path clip-path="url(#clip400)" d="M695.148 73.7508 Q678.337 73.7508 678.337 49.6884 Q678.337 40.1688 684.616 27.2059 L692.637 27.2059 Q686.844 40.1688 686.844 49.8909 Q686.844 67.4314 695.837 67.4314 Q704.06 67.4314 704.06 45.6375 L710.947 45.6375 Q710.947 67.4314 719.17 67.4314 Q728.163 67.4314 728.163 49.8909 Q728.163 40.1688 722.37 27.2059 L730.391 27.2059 Q736.67 40.1688 736.67 49.6884 Q736.67 73.7508 719.859 73.7508 Q708.84 73.7508 707.503 61.6386 Q705.842 73.7508 695.148 73.7508 Z" fill="#000000" fill-rule="nonzero" fill-opacity="1" /><path clip-path="url(#clip400)" d="M777.503 34.9026 L829.436 34.9026 L829.436 41.7081 L777.503 41.7081 L777.503 34.9026 M777.503 51.4303 L829.436 51.4303 L829.436 58.3168 L777.503 58.3168 L777.503 51.4303 Z" fill="#000000" fill-rule="nonzero" fill-opacity="1" /><path clip-path="url(#clip400)" d="M868.648 46.5287 L890.483 46.5287 L890.483 53.1722 L868.648 53.1722 L868.648 46.5287 Z" fill="#000000" fill-rule="nonzero" fill-opacity="1" /><path clip-path="url(#clip400)" d="M920.905 17.4837 Q914.586 17.4837 911.385 23.7221 Q908.226 29.92 908.226 42.3968 Q908.226 54.833 911.385 61.0714 Q914.586 67.2693 920.905 67.2693 Q927.265 67.2693 930.425 61.0714 Q933.625 54.833 933.625 42.3968 Q933.625 29.92 930.425 23.7221 Q927.265 17.4837 920.905 17.4837 M920.905 11.0023 Q931.073 11.0023 936.42 19.0636 Q941.808 27.0843 941.808 42.3968 Q941.808 57.6687 936.42 65.73 Q931.073 73.7508 920.905 73.7508 Q910.737 73.7508 905.35 65.73 Q900.002 57.6687 900.002 42.3968 Q900.002 27.0843 905.35 19.0636 Q910.737 11.0023 920.905 11.0023 Z" fill="#000000" fill-rule="nonzero" fill-opacity="1" /><path clip-path="url(#clip400)" d="M956.188 62.2867 L964.736 62.2867 L964.736 72.576 L956.188 72.576 L956.188 62.2867 Z" fill="#000000" fill-rule="nonzero" fill-opacity="1" /><path clip-path="url(#clip400)" d="M983.978 65.6895 L997.346 65.6895 L997.346 19.5497 L982.803 22.4663 L982.803 15.0127 L997.265 12.096 L1005.45 12.096 L1005.45 65.6895 L1018.82 65.6895 L1018.82 72.576 L983.978 72.576 L983.978 65.6895 Z" fill="#000000" fill-rule="nonzero" fill-opacity="1" /><path clip-path="url(#clip400)" d="M1035.42 12.096 L1067.55 12.096 L1067.55 18.9825 L1042.92 18.9825 L1042.92 33.8088 Q1044.7 33.2012 1046.48 32.9176 Q1048.27 32.5936 1050.05 32.5936 Q1060.18 32.5936 1066.09 38.1433 Q1072 43.6931 1072 53.1722 Q1072 62.9348 1065.93 68.3631 Q1059.85 73.7508 1048.79 73.7508 Q1044.98 73.7508 1041.01 73.1026 Q1037.08 72.4545 1032.87 71.1582 L1032.87 62.9348 Q1036.52 64.9198 1040.41 65.892 Q1044.3 66.8642 1048.63 66.8642 Q1055.64 66.8642 1059.73 63.1779 Q1063.82 59.4916 1063.82 53.1722 Q1063.82 46.8528 1059.73 43.1664 Q1055.64 39.4801 1048.63 39.4801 Q1045.35 39.4801 1042.07 40.2093 Q1038.83 40.9384 1035.42 42.4778 L1035.42 12.096 Z" fill="#000000" fill-rule="nonzero" fill-opacity="1" /><path clip-path="url(#clip400)" d="M1112.92 39.9662 Q1118.79 41.222 1122.07 45.1919 Q1125.39 49.1618 1125.39 54.9951 Q1125.39 63.9476 1119.24 68.8492 Q1113.08 73.7508 1101.74 73.7508 Q1097.93 73.7508 1093.88 72.9811 Q1089.87 72.2519 1085.57 70.7531 L1085.57 62.8538 Q1088.98 64.8388 1093.03 65.8515 Q1097.08 66.8642 1101.49 66.8642 Q1109.19 66.8642 1113.2 63.826 Q1117.25 60.7879 1117.25 54.9951 Q1117.25 49.6479 1113.48 46.6502 Q1109.76 43.612 1103.07 43.612 L1096.03 43.612 L1096.03 36.8875 L1103.4 36.8875 Q1109.43 36.8875 1112.63 34.4975 Q1115.83 32.067 1115.83 27.5299 Q1115.83 22.8714 1112.51 20.4004 Q1109.23 17.8888 1103.07 17.8888 Q1099.71 17.8888 1095.86 18.618 Q1092.02 19.3471 1087.4 20.8865 L1087.4 13.5948 Q1092.06 12.2985 1096.11 11.6504 Q1100.2 11.0023 1103.8 11.0023 Q1113.12 11.0023 1118.55 15.2557 Q1123.98 19.4686 1123.98 26.6793 Q1123.98 31.7024 1121.1 35.1862 Q1118.22 38.6294 1112.92 39.9662 Z" fill="#000000" fill-rule="nonzero" fill-opacity="1" /><path clip-path="url(#clip400)" d="M1165.7 39.9662 Q1171.57 41.222 1174.86 45.1919 Q1178.18 49.1618 1178.18 54.9951 Q1178.18 63.9476 1172.02 68.8492 Q1165.86 73.7508 1154.52 73.7508 Q1150.71 73.7508 1146.66 72.9811 Q1142.65 72.2519 1138.36 70.7531 L1138.36 62.8538 Q1141.76 64.8388 1145.81 65.8515 Q1149.86 66.8642 1154.28 66.8642 Q1161.97 66.8642 1165.98 63.826 Q1170.04 60.7879 1170.04 54.9951 Q1170.04 49.6479 1166.27 46.6502 Q1162.54 43.612 1155.86 43.612 L1148.81 43.612 L1148.81 36.8875 L1156.18 36.8875 Q1162.22 36.8875 1165.42 34.4975 Q1168.62 32.067 1168.62 27.5299 Q1168.62 22.8714 1165.3 20.4004 Q1162.01 17.8888 1155.86 17.8888 Q1152.5 17.8888 1148.65 18.618 Q1144.8 19.3471 1140.18 20.8865 L1140.18 13.5948 Q1144.84 12.2985 1148.89 11.6504 Q1152.98 11.0023 1156.59 11.0023 Q1165.9 11.0023 1171.33 15.2557 Q1176.76 19.4686 1176.76 26.6793 Q1176.76 31.7024 1173.88 35.1862 Q1171.01 38.6294 1165.7 39.9662 Z" fill="#000000" fill-rule="nonzero" fill-opacity="1" /><path clip-path="url(#clip400)" d="M1195.11 65.6895 L1208.48 65.6895 L1208.48 19.5497 L1193.94 22.4663 L1193.94 15.0127 L1208.4 12.096 L1216.58 12.096 L1216.58 65.6895 L1229.95 65.6895 L1229.95 72.576 L1195.11 72.576 L1195.11 65.6895 Z" fill="#000000" fill-rule="nonzero" fill-opacity="1" /><path clip-path="url(#clip400)" d="M1268.96 19.2256 L1248.3 51.5113 L1268.96 51.5113 L1268.96 19.2256 M1266.81 12.096 L1277.1 12.096 L1277.1 51.5113 L1285.73 51.5113 L1285.73 58.3168 L1277.1 58.3168 L1277.1 72.576 L1268.96 72.576 L1268.96 58.3168 L1241.66 58.3168 L1241.66 50.4176 L1266.81 12.096 Z" fill="#000000" fill-rule="nonzero" fill-opacity="1" /><path clip-path="url(#clip400)" d="M1299.34 12.096 L1331.46 12.096 L1331.46 18.9825 L1306.83 18.9825 L1306.83 33.8088 Q1308.62 33.2012 1310.4 32.9176 Q1312.18 32.5936 1313.96 32.5936 Q1324.09 32.5936 1330.01 38.1433 Q1335.92 43.6931 1335.92 53.1722 Q1335.92 62.9348 1329.84 68.3631 Q1323.77 73.7508 1312.71 73.7508 Q1308.9 73.7508 1304.93 73.1026 Q1301 72.4545 1296.79 71.1582 L1296.79 62.9348 Q1300.43 64.9198 1304.32 65.892 Q1308.21 66.8642 1312.55 66.8642 Q1319.55 66.8642 1323.65 63.1779 Q1327.74 59.4916 1327.74 53.1722 Q1327.74 46.8528 1323.65 43.1664 Q1319.55 39.4801 1312.55 39.4801 Q1309.27 39.4801 1305.98 40.2093 Q1302.74 40.9384 1299.34 42.4778 L1299.34 12.096 Z" fill="#000000" fill-rule="nonzero" fill-opacity="1" /><path clip-path="url(#clip400)" d="M1369.54 43.8551 Q1363.71 43.8551 1360.35 46.9743 Q1357.03 50.0935 1357.03 55.5622 Q1357.03 61.0309 1360.35 64.1501 Q1363.71 67.2693 1369.54 67.2693 Q1375.38 67.2693 1378.74 64.1501 Q1382.1 60.9904 1382.1 55.5622 Q1382.1 50.0935 1378.74 46.9743 Q1375.42 43.8551 1369.54 43.8551 M1361.36 40.3713 Q1356.09 39.075 1353.14 35.4697 Q1350.22 31.8644 1350.22 26.6793 Q1350.22 19.4281 1355.36 15.2152 Q1360.55 11.0023 1369.54 11.0023 Q1378.58 11.0023 1383.72 15.2152 Q1388.87 19.4281 1388.87 26.6793 Q1388.87 31.8644 1385.91 35.4697 Q1382.99 39.075 1377.77 40.3713 Q1383.68 41.7486 1386.96 45.759 Q1390.28 49.7694 1390.28 55.5622 Q1390.28 64.3527 1384.9 69.0517 Q1379.55 73.7508 1369.54 73.7508 Q1359.54 73.7508 1354.15 69.0517 Q1348.8 64.3527 1348.8 55.5622 Q1348.8 49.7694 1352.12 45.759 Q1355.45 41.7486 1361.36 40.3713 M1358.36 27.4489 Q1358.36 32.148 1361.28 34.7811 Q1364.24 37.4142 1369.54 37.4142 Q1374.81 37.4142 1377.77 34.7811 Q1380.76 32.148 1380.76 27.4489 Q1380.76 22.7499 1377.77 20.1168 Q1374.81 17.4837 1369.54 17.4837 Q1364.24 17.4837 1361.28 20.1168 Q1358.36 22.7499 1358.36 27.4489 Z" fill="#000000" fill-rule="nonzero" fill-opacity="1" /><path clip-path="url(#clip400)" d="M1411.87 65.6895 L1440.43 65.6895 L1440.43 72.576 L1402.03 72.576 L1402.03 65.6895 Q1406.69 60.8689 1414.71 52.7671 Q1422.77 44.6248 1424.84 42.2752 Q1428.77 37.8598 1430.31 34.8216 Q1431.89 31.7429 1431.89 28.7857 Q1431.89 23.9651 1428.48 20.927 Q1425.12 17.8888 1419.69 17.8888 Q1415.84 17.8888 1411.55 19.2256 Q1407.3 20.5624 1402.44 23.2765 L1402.44 15.0127 Q1407.38 13.0277 1411.67 12.015 Q1415.97 11.0023 1419.53 11.0023 Q1428.93 11.0023 1434.52 15.7013 Q1440.11 20.4004 1440.11 28.2591 Q1440.11 31.9859 1438.69 35.3482 Q1437.31 38.6699 1433.63 43.2069 Q1432.62 44.3817 1427.19 50.0125 Q1421.76 55.6027 1411.87 65.6895 Z" fill="#000000" fill-rule="nonzero" fill-opacity="1" /><path clip-path="url(#clip400)" d="M1482.4 39.9662 Q1488.27 41.222 1491.56 45.1919 Q1494.88 49.1618 1494.88 54.9951 Q1494.88 63.9476 1488.72 68.8492 Q1482.56 73.7508 1471.22 73.7508 Q1467.41 73.7508 1463.36 72.9811 Q1459.35 72.2519 1455.06 70.7531 L1455.06 62.8538 Q1458.46 64.8388 1462.51 65.8515 Q1466.56 66.8642 1470.98 66.8642 Q1478.67 66.8642 1482.68 63.826 Q1486.74 60.7879 1486.74 54.9951 Q1486.74 49.6479 1482.97 46.6502 Q1479.24 43.612 1472.56 43.612 L1465.51 43.612 L1465.51 36.8875 L1472.88 36.8875 Q1478.92 36.8875 1482.12 34.4975 Q1485.32 32.067 1485.32 27.5299 Q1485.32 22.8714 1482 20.4004 Q1478.71 17.8888 1472.56 17.8888 Q1469.19 17.8888 1465.35 18.618 Q1461.5 19.3471 1456.88 20.8865 L1456.88 13.5948 Q1461.54 12.2985 1465.59 11.6504 Q1469.68 11.0023 1473.29 11.0023 Q1482.6 11.0023 1488.03 15.2557 Q1493.46 19.4686 1493.46 26.6793 Q1493.46 31.7024 1490.58 35.1862 Q1487.71 38.6294 1482.4 39.9662 Z" fill="#000000" fill-rule="nonzero" fill-opacity="1" /><path clip-path="url(#clip400)" d="M1508.33 12.096 L1547.22 12.096 L1547.22 15.5798 L1525.26 72.576 L1516.71 72.576 L1537.37 18.9825 L1508.33 18.9825 L1508.33 12.096 Z" fill="#000000" fill-rule="nonzero" fill-opacity="1" /><path clip-path="url(#clip400)" d="M1563.42 71.3202 L1563.42 63.8666 Q1566.5 65.3249 1569.66 66.0946 Q1572.82 66.8642 1575.86 66.8642 Q1583.96 66.8642 1588.21 61.436 Q1592.5 55.9673 1593.11 44.8678 Q1590.76 48.3516 1587.16 50.215 Q1583.55 52.0784 1579.18 52.0784 Q1570.1 52.0784 1564.8 46.6097 Q1559.53 41.1005 1559.53 31.5808 Q1559.53 22.2638 1565.04 16.633 Q1570.55 11.0023 1579.7 11.0023 Q1590.2 11.0023 1595.7 19.0636 Q1601.25 27.0843 1601.25 42.3968 Q1601.25 56.6965 1594.45 65.2439 Q1587.68 73.7508 1576.22 73.7508 Q1573.14 73.7508 1569.98 73.1431 Q1566.82 72.5355 1563.42 71.3202 M1579.7 45.678 Q1585.21 45.678 1588.41 41.9107 Q1591.65 38.1433 1591.65 31.5808 Q1591.65 25.0589 1588.41 21.2916 Q1585.21 17.4837 1579.7 17.4837 Q1574.19 17.4837 1570.95 21.2916 Q1567.75 25.0589 1567.75 31.5808 Q1567.75 38.1433 1570.95 41.9107 Q1574.19 45.678 1579.7 45.678 Z" fill="#000000" fill-rule="nonzero" fill-opacity="1" /><path clip-path="url(#clip400)" d="M1616.2 71.3202 L1616.2 63.8666 Q1619.28 65.3249 1622.44 66.0946 Q1625.6 66.8642 1628.64 66.8642 Q1636.74 66.8642 1640.99 61.436 Q1645.29 55.9673 1645.9 44.8678 Q1643.55 48.3516 1639.94 50.215 Q1636.34 52.0784 1631.96 52.0784 Q1622.89 52.0784 1617.58 46.6097 Q1612.31 41.1005 1612.31 31.5808 Q1612.31 22.2638 1617.82 16.633 Q1623.33 11.0023 1632.49 11.0023 Q1642.98 11.0023 1648.49 19.0636 Q1654.04 27.0843 1654.04 42.3968 Q1654.04 56.6965 1647.23 65.2439 Q1640.47 73.7508 1629 73.7508 Q1625.92 73.7508 1622.76 73.1431 Q1619.6 72.5355 1616.2 71.3202 M1632.49 45.678 Q1638 45.678 1641.2 41.9107 Q1644.44 38.1433 1644.44 31.5808 Q1644.44 25.0589 1641.2 21.2916 Q1638 17.4837 1632.49 17.4837 Q1626.98 17.4837 1623.74 21.2916 Q1620.54 25.0589 1620.54 31.5808 Q1620.54 38.1433 1623.74 41.9107 Q1626.98 45.678 1632.49 45.678 Z" fill="#000000" fill-rule="nonzero" fill-opacity="1" /><path clip-path="url(#clip400)" d="M1670.16 65.6895 L1683.53 65.6895 L1683.53 19.5497 L1668.99 22.4663 L1668.99 15.0127 L1683.45 12.096 L1691.63 12.096 L1691.63 65.6895 L1705 65.6895 L1705 72.576 L1670.16 72.576 L1670.16 65.6895 Z" fill="#000000" fill-rule="nonzero" fill-opacity="1" /><path clip-path="url(#clip400)" d="M1744.01 19.2256 L1723.35 51.5113 L1744.01 51.5113 L1744.01 19.2256 M1741.86 12.096 L1752.15 12.096 L1752.15 51.5113 L1760.78 51.5113 L1760.78 58.3168 L1752.15 58.3168 L1752.15 72.576 L1744.01 72.576 L1744.01 58.3168 L1716.71 58.3168 L1716.71 50.4176 L1741.86 12.096 Z" fill="#000000" fill-rule="nonzero" fill-opacity="1" /><path clip-path="url(#clip400)" d="M1774.55 71.3202 L1774.55 63.8666 Q1777.63 65.3249 1780.79 66.0946 Q1783.95 66.8642 1786.99 66.8642 Q1795.09 66.8642 1799.34 61.436 Q1803.64 55.9673 1804.25 44.8678 Q1801.9 48.3516 1798.29 50.215 Q1794.69 52.0784 1790.31 52.0784 Q1781.24 52.0784 1775.93 46.6097 Q1770.66 41.1005 1770.66 31.5808 Q1770.66 22.2638 1776.17 16.633 Q1781.68 11.0023 1790.84 11.0023 Q1801.33 11.0023 1806.84 19.0636 Q1812.39 27.0843 1812.39 42.3968 Q1812.39 56.6965 1805.58 65.2439 Q1798.82 73.7508 1787.35 73.7508 Q1784.27 73.7508 1781.11 73.1431 Q1777.95 72.5355 1774.55 71.3202 M1790.84 45.678 Q1796.35 45.678 1799.55 41.9107 Q1802.79 38.1433 1802.79 31.5808 Q1802.79 25.0589 1799.55 21.2916 Q1796.35 17.4837 1790.84 17.4837 Q1785.33 17.4837 1782.09 21.2916 Q1778.89 25.0589 1778.89 31.5808 Q1778.89 38.1433 1782.09 41.9107 Q1785.33 45.678 1790.84 45.678 Z" fill="#000000" fill-rule="nonzero" fill-opacity="1" /><path clip-path="url(#clip400)" d="M1825.03 12.096 L1863.91 12.096 L1863.91 15.5798 L1841.96 72.576 L1833.41 72.576 L1854.07 18.9825 L1825.03 18.9825 L1825.03 12.096 Z" fill="#000000" fill-rule="nonzero" fill-opacity="1" /><polyline clip-path="url(#clip401)" style="stroke:#009af9; stroke-linecap:round; stroke-linejoin:round; stroke-width:4; stroke-opacity:1; fill:none" points="250.72,162.047 252.763,163.08 254.806,165.169 256.849,168.356 258.892,172.714 260.935,178.349 262.977,185.415 265.02,194.135 267.063,204.839 269.106,218.034 271.149,234.548 273.192,255.86 275.235,285.023 277.277,330.18 279.32,433.241 281.363,405.531 283.406,326.397 285.449,289.221 287.492,265.844 289.534,249.646 291.577,238.006 293.62,229.632 295.663,223.804 297.706,220.092 299.749,218.241 301.792,218.101 303.834,219.607 305.877,222.764 307.92,227.645 309.963,234.406 312.006,243.317 314.049,254.821 316.092,269.661 318.134,289.177 320.177,316.093 322.22,357.386 324.263,444.044 326.306,459.516 328.349,365.951 330.392,325.334 332.434,300.175 334.477,282.778 336.52,270.224 338.563,261.098 340.606,254.623 342.649,250.335 344.692,247.956 346.734,247.322 348.777,248.352 350.82,251.038 352.863,255.438 354.906,261.69 356.949,270.036 358.992,280.876 361.034,294.875 363.077,313.213 365.12,338.215 367.163,375.485 369.206,446.009 371.249,535.86 373.292,406.118 375.334,360.1 377.377,332.68 379.42,313.997 381.463,300.583 383.506,290.822 385.549,283.84 387.591,279.125 389.634,276.369 391.677,275.385 393.72,276.081 395.763,278.431 397.806,282.482 399.849,288.354 401.891,296.266 403.934,306.582 405.977,319.903 408.02,337.28 410.063,360.732 412.106,394.894 414.149,455.134 416.191,677.483 418.234,447.253 420.277,394.845 422.32,365.019 424.363,345.033 426.406,330.775 428.449,320.403 430.491,312.941 432.534,307.826 434.577,304.716 436.62,303.408 438.663,303.791 440.706,305.829 442.749,309.554 444.791,315.071 446.834,322.579 448.877,332.407 450.92,345.104 452.963,361.609 455.006,383.691 457.049,415.242 459.091,467.981 461.134,650.533 463.177,490.796 465.22,430.187 467.263,397.62 469.306,376.221 471.349,361.071 473.391,350.064 475.434,342.109 477.477,336.587 479.52,333.122 481.563,331.488 483.606,331.56 485.648,333.288 487.691,336.692 489.734,341.863 491.777,348.979 493.82,358.34 495.863,370.445 497.906,386.14 499.948,406.98 501.991,436.268 504.034,483.187 506.077,602.516 508.12,538.16 510.163,466.358 512.206,430.585 514.248,407.618 516.291,391.508 518.334,379.83 520.377,371.363 522.42,365.42 524.463,361.591 526.506,359.628 528.548,359.387 530.591,360.807 532.634,363.893 534.677,368.724 536.72,375.458 538.763,384.369 540.806,395.911 542.848,410.846 544.891,430.551 546.934,457.853 548.977,500.101 551.02,591.523 553.063,591.809 555.106,503.562 557.148,463.969 559.191,439.247 561.234,422.098 563.277,409.707 565.32,400.704 567.363,394.327 569.406,390.127 571.448,387.828 573.491,387.272 575.534,388.383 577.577,391.155 579.62,395.651 581.663,402.012 583.705,410.489 585.748,421.494 587.791,435.716 589.834,454.378 591.877,479.919 593.92,518.324 595.963,593.069 598.005,657.689 600.048,542.067 602.091,497.832 604.134,471.132 606.177,452.85 608.22,439.702 610.263,430.136 612.305,423.31 614.348,418.728 616.391,416.089 618.434,415.216 620.477,416.018 622.52,418.477 624.563,422.642 626.605,428.64 628.648,436.696 630.691,447.187 632.734,460.736 634.777,478.435 636.82,502.402 638.863,537.581 640.905,601.005 642.948,758.961 644.991,582.272 647.034,532.256 649.077,503.301 651.12,483.78 653.163,469.821 655.205,459.665 657.248,452.372 659.291,447.398 661.334,444.412 663.377,443.218 665.42,443.711 667.463,445.859 669.505,449.698 671.548,455.339 673.591,462.988 675.634,472.986 677.677,485.9 679.72,502.706 681.762,525.256 683.805,557.686 685.848,612.846 687.891,853.383 689.934,624.773 691.977,567.331 694.02,535.78 696.062,514.896 698.105,500.069 700.148,489.29 702.191,481.512 704.234,476.135 706.277,472.796 708.32,471.277 710.362,471.459 712.405,473.297 714.448,476.814 716.491,482.106 718.534,489.358 720.577,498.882 722.62,511.192 724.662,527.165 726.705,548.428 728.748,578.476 730.791,627.287 732.834,761.956 734.877,670.639 736.92,603.213 738.962,568.627 741.005,546.23 743.048,530.466 745.091,519.027 747.134,510.743 749.177,504.95 751.22,501.25 753.262,499.402 755.305,499.272 757.348,500.8 759.391,503.998 761.434,508.948 763.477,515.815 765.52,524.883 767.562,536.62 769.605,551.817 771.648,571.911 773.691,599.885 775.734,643.67 777.777,743.118 779.819,721.633 781.862,640.014 783.905,601.848 785.948,577.767 787.991,560.994 790.034,548.859 792.077,540.047 794.119,533.824 796.162,529.755 798.205,527.574 800.248,527.129 802.291,528.347 804.334,531.229 806.377,535.84 808.419,542.329 810.462,550.955 812.505,562.142 814.548,576.605 816.591,595.616 818.634,621.74 820.677,661.385 822.719,741.071 824.762,782.444 826.805,678.132 828.848,635.6 830.891,609.608 832.934,591.727 834.977,578.845 837.019,569.476 839.062,562.807 841.105,558.358 843.148,555.838 845.191,555.075 847.234,555.985 849.277,558.553 851.319,562.832 853.362,568.956 855.405,577.159 857.448,587.828 859.491,601.609 861.534,619.639 863.577,644.142 865.619,680.399 867.662,747.387 869.705,864.78 871.748,717.554 873.791,669.74 875.834,641.616 877.876,622.545 879.919,608.876 881.962,598.929 884.005,591.8 886.048,586.961 888.091,584.092 890.134,583.004 892.176,583.596 894.219,585.84 896.262,589.776 898.305,595.516 900.348,603.272 902.391,613.389 904.434,626.443 906.476,643.426 908.519,666.22 910.562,699.016 912.605,754.564 914.648,881.533 916.691,758.689 918.734,704.795 920.776,674.167 922.819,653.676 924.862,639.047 926.905,628.371 928.948,620.647 930.991,615.296 933.034,611.973 935.076,610.475 937.119,610.695 939.162,612.605 941.205,616.242 943.248,621.718 945.291,629.234 947.334,639.109 949.376,651.851 951.419,668.273 953.462,689.716 955.505,718.334 957.548,755.488 959.591,779.698 961.634,753.358 963.676,720.484 965.719,696.258 967.762,678.719 969.805,665.795 971.848,656.201 973.891,649.146 975.933,644.129 977.976,640.834 980.019,639.073 982.062,638.753 984.105,639.868 986.148,642.485 988.191,646.751 990.233,652.909 992.276,661.325 994.319,672.564 996.362,687.538 998.405,707.875 1000.45,736.953 1002.49,783.887 1004.53,887.904 1006.58,826.599 1008.62,762.659 1010.66,729.074 1012.7,707.636 1014.75,692.946 1016.79,682.67 1018.83,675.568 1020.88,670.886 1022.92,668.125 1024.96,666.94 1027,667.101 1029.05,668.478 1031.09,671.044 1033.13,674.878 1035.18,680.175 1037.22,687.266 1039.26,696.659 1041.3,709.129 1043.35,725.952 1045.39,749.505 1047.43,785.209 1049.48,850.653 1051.52,903.829 1053.56,810.573 1055.6,766.951 1057.65,740.687 1059.69,723.156 1061.73,711.08 1063.78,702.852 1065.82,697.542 1067.86,694.542 1069.9,693.413 1071.95,693.823 1073.99,695.522 1076.03,698.348 1078.08,702.239 1080.12,707.265 1082.16,713.647 1084.2,721.784 1086.25,732.304 1088.29,746.177 1090.33,764.996 1092.38,791.694 1094.42,832.23 1096.46,885.901 1098.5,855.616 1100.55,807.5 1102.59,776.775 1104.63,756.223 1106.68,742.029 1108.72,732.287 1110.76,725.918 1112.8,722.24 1114.85,720.769 1116.89,721.13 1118.93,723.014 1120.98,726.165 1123.02,730.397 1125.06,735.626 1127.1,741.911 1129.15,749.495 1131.19,758.844 1133.23,770.695 1135.28,786.168 1137.32,806.958 1139.36,835.344 1141.4,869.353 1143.45,874.616 1145.49,841.533 1147.53,810.991 1149.58,788.799 1151.62,772.92 1153.66,761.691 1155.7,754.064 1157.75,749.356 1159.79,747.097 1161.83,746.926 1163.88,748.55 1165.92,751.71 1167.96,756.183 1170,761.792 1172.05,768.444 1174.09,776.181 1176.13,785.231 1178.18,796.055 1180.22,809.383 1182.26,826.23 1184.3,847.638 1186.35,872.488 1188.39,887.742 1190.43,874.259 1192.48,848.481 1194.52,825.902 1196.56,808.591 1198.6,795.798 1200.65,786.679 1202.69,780.615 1204.73,777.162 1206.78,775.998 1208.82,776.877 1210.86,779.599 1212.9,783.997 1214.95,789.932 1216.99,797.304 1219.03,806.073 1221.08,816.302 1223.12,828.195 1225.16,842.125 1227.2,858.536 1229.25,877.379 1231.29,895.814 1233.33,903.925 1235.38,893.521 1237.42,873.828 1239.46,854.623 1241.5,838.703 1243.55,826.219 1245.59,816.806 1247.63,810.081 1249.68,805.745 1251.72,803.566 1253.76,803.379 1255.8,805.06 1257.85,808.529 1259.89,813.743 1261.93,820.706 1263.98,829.483 1266.02,840.229 1268.06,853.228 1270.1,868.946 1272.15,888.03 1274.19,910.935 1276.23,935.38 1278.28,948.253 1280.32,935.739 1282.36,912.587 1284.4,891.493 1286.45,874.607 1288.49,861.5 1290.53,851.538 1292.58,844.233 1294.62,839.247 1296.66,836.353 1298.7,835.401 1300.75,836.307 1302.79,839.04 1304.83,843.621 1306.88,850.142 1308.92,858.778 1310.96,869.837 1313,883.838 1315.05,901.648 1317.09,924.74 1319.13,955.342 1321.18,992.551 1323.22,1003.07 1325.26,970.501 1327.3,939.234 1329.35,916.152 1331.39,899.048 1333.43,886.177 1335.48,876.487 1337.52,869.341 1339.56,864.345 1341.6,861.252 1343.65,859.911 1345.69,860.243 1347.73,862.222 1349.78,865.88 1351.82,871.306 1353.86,878.669 1355.9,888.249 1357.95,900.504 1359.99,916.203 1362.03,936.72 1364.08,964.768 1366.12,1006.43 1368.16,1069.38 1370.2,1048.17 1372.25,994.559 1374.29,961.553 1376.33,939.442 1378.38,923.689 1380.42,912.184 1382.46,903.817 1384.5,897.951 1386.55,894.209 1388.59,892.365 1390.63,892.303 1392.68,893.988 1394.72,897.463 1396.76,902.858 1398.8,910.416 1400.85,920.555 1402.89,933.991 1404.93,952.025 1406.98,977.302 1409.02,1016.4 1411.06,1092.45 1413.1,1092.94 1415.15,1014.18 1417.19,972.745 1419.23,944.974 1421.28,924.081 1423.32,907.258 1425.36,893.04 1427.4,880.538 1429.45,869.146 1431.49,858.415 1433.53,847.995 1435.58,837.605 1437.62,827.025 1439.66,816.084 1441.7,804.667 1443.75,792.71 1445.79,780.194 1447.83,767.14 1449.88,753.601 1451.92,739.649 1453.96,725.368 1456,710.846 1458.05,696.164 1460.09,681.398 1462.13,666.617 1464.18,651.874 1466.22,637.219 1468.26,622.688 1470.3,608.312 1472.35,594.113 1474.39,580.111 1476.43,566.319 1478.48,552.747 1480.52,539.402 1482.56,526.29 1484.6,513.416 1486.65,500.781 1488.69,488.387 1490.73,476.237 1492.78,464.331 1494.82,452.67 1496.86,441.255 1498.9,430.086 1500.95,419.165 1502.99,408.492 1505.03,398.069 1507.08,387.896 1509.12,377.976 1511.16,368.309 1513.2,358.897 1515.25,349.742 1517.29,340.847 1519.33,332.214 1521.38,323.845 1523.42,315.744 1525.46,307.914 1527.5,300.358 1529.55,293.08 1531.59,286.085 1533.63,279.376 1535.68,272.959 1537.72,266.84 1539.76,261.023 1541.8,255.517 1543.85,250.327 1545.89,245.463 1547.93,240.932 1549.98,236.745 1552.02,232.912 1554.06,229.445 1556.1,226.359 1558.15,223.668 1560.19,221.39 1562.23,219.545 1564.28,218.156 1566.32,217.25 1568.36,216.858 1570.4,217.017 1572.45,217.771 1574.49,219.173 1576.53,221.289 1578.58,224.199 1580.62,228.008 1582.66,232.848 1584.7,238.897 1586.75,246.402 1588.79,255.714 1590.83,267.363 1592.88,282.209 1594.92,301.784 1596.96,329.269 1599,373.275 1601.05,480.965 1603.09,434.641 1605.13,356.628 1607.18,317.476 1609.22,291.475 1611.26,272.322 1613.3,257.484 1615.35,245.69 1617.39,236.222 1619.43,228.637 1621.48,222.654 1623.52,218.088 1625.56,214.82 1627.6,212.781 1629.65,211.939 1631.69,212.297 1633.73,213.892 1635.78,216.8 1637.82,221.146 1639.86,227.118 1641.9,235.001 1643.95,245.238 1645.99,258.541 1648.03,276.155 1650.08,300.544 1652.12,337.737 1654.16,411.456 1656.2,472.467 1658.25,356.342 1660.29,310.563 1662.33,282.142 1664.38,262.025 1666.42,246.94 1668.46,235.336 1670.5,226.368 1672.55,219.531 1674.59,214.51 1676.63,211.109 1678.68,209.21 1680.72,208.755 1682.76,209.738 1684.8,212.203 1686.85,216.251 1688.89,222.052 1690.93,229.883 1692.98,240.179 1695.02,253.657 1697.06,271.586 1699.1,296.499 1701.15,334.678 1703.19,411.679 1705.23,458.538 1707.28,349.946 1709.32,305.656 1711.36,278.147 1713.4,258.797 1715.45,244.44 1717.49,233.569 1719.53,225.358 1721.58,219.317 1723.62,215.142 1725.66,212.648 1727.7,211.732 1729.75,212.355 1731.79,214.533 1733.83,218.348 1735.88,223.949 1737.92,231.591 1739.96,241.682 1742,254.894 1744.05,272.411 1746.09,296.562 1748.13,332.959 1750.18,402.597 1752.22,491.28 1754.26,360.758 1756.3,313.78 1758.35,285.368 1760.39,265.668 1762.43,251.212 1764.48,240.382 1766.52,232.302 1768.56,226.456 1770.6,222.53 1772.65,220.331 1774.69,219.755 1776.73,220.763 1778.78,223.38 1780.82,227.696 1782.86,233.881 1784.9,242.218 1786.95,253.169 1788.99,267.509 1791.03,286.634 1793.08,313.418 1795.12,355.375 1797.16,448.225 1799.2,441.46 1801.25,354.496 1803.29,314.543 1805.33,289.211 1807.38,271.358 1809.42,258.211 1811.46,248.415 1813.5,241.215 1815.55,236.162 1817.59,232.981 1819.63,231.507 1821.68,231.66 1823.72,233.424 1825.76,236.846 1827.8,242.047 1829.85,249.242 1831.89,258.781 1833.93,271.245 1835.98,287.633 1838.02,309.845 1840.06,342.156 1842.1,398.087 1844.15,708.171 1846.19,402.964 1848.23,346.442 1850.28,314.755 1852.32,293.472 1854.36,278.137 1856.4,266.789 1858.45,258.402 1860.49,252.385 1862.53,248.379 1864.58,246.168 1866.62,245.629 1868.66,246.714 1870.7,249.44 1872.75,253.891 1874.79,260.235 1876.83,268.755 1878.88,279.913 1880.92,294.489 1882.96,313.894 1885,341.041 1887.05,383.59 1889.09,478.685 1891.13,466.54 1893.18,381.52 1895.22,342.165 1897.26,317.235 1899.3,299.721 1901.35,286.892 1903.39,277.405 1905.43,270.514 1907.47,265.775 1909.52,262.916 1911.56,261.78 1913.6,262.287 1915.65,264.429 1917.69,268.262 1919.73,273.919 1921.77,281.634 1923.82,291.79 1925.86,305.025 1927.9,322.456 1929.95,346.259 1931.99,381.56 1934.03,446.418 1936.07,580.116 1938.12,420.696 1940.16,371.424 1942.2,342.44 1944.25,322.674 1946.29,308.376 1948.33,297.829 1950.37,290.113 1952.42,284.693 1954.46,281.242 1956.5,279.565 1958.55,279.557 1960.59,281.185 1962.63,284.483 1964.67,289.554 1966.72,296.596 1968.76,305.933 1970.8,318.101 1972.85,334.022 1974.89,355.411 1976.93,386.019 1978.97,436.919 1981.02,598.038 1983.06,465.874 1985.1,402.649 1987.15,368.979 1989.19,346.808 1991.23,331.011 1993.27,319.412 1995.32,310.895 1997.36,304.823 1999.4,300.812 2001.45,298.632 2003.49,298.15 2005.53,299.311 2007.57,302.127 2009.62,306.681 2011.66,313.137 2013.7,321.774 2015.75,333.054 2017.79,347.753 2019.83,367.277 2021.87,394.525 2023.92,437.114 2025.96,531.766 2028,521.443 2030.05,436.082 2032.09,396.79 2034.13,371.987 2036.17,354.625 2038.22,341.961 2040.26,332.648 2042.3,325.94 2044.35,321.391 2046.39,318.731 2048.43,317.801 2050.47,318.527 2052.52,320.901 2054.56,324.984 2056.6,330.914 2058.65,338.934 2060.69,349.446 2062.73,363.116 2064.77,381.122 2066.82,405.793 2068.86,442.739 2070.9,512.972 2072.95,602.135 2074.99,472.254 2077.03,425.913 2079.07,398.153 2081.12,379.123 2083.16,365.358 2085.2,355.242 2087.25,347.902 2089.29,342.824 2091.33,339.699 2093.37,338.341 2095.42,338.655 2097.46,340.613 2099.5,344.26 2101.55,349.71 2103.59,357.176 2105.63,367.009 2107.67,379.79 2109.72,396.527 2111.76,419.138 2113.8,451.955 2115.85,508.793 2117.89,911.706 2119.93,511.92 2121.97,456.349 2124.02,425.212 2126.06,404.385 2128.1,389.473 2130.15,378.537 2132.19,370.562 2134.23,364.961 2136.27,361.379 2138.32,359.605 2140.36,359.521 2142.4,361.084 2144.45,364.319 2146.49,369.321 2148.53,376.275 2150.57,385.492 2152.62,397.481 2154.66,413.114 2156.7,434.001 2158.75,463.592 2160.79,511.676 2162.83,642.15 2164.87,557.055 2166.92,488.396 2168.96,453.257 2171,430.44 2173.05,414.304 2175.09,402.515 2177.13,393.89 2179.17,387.761 2181.22,383.726 2183.26,381.543 2185.3,381.073 2187.35,382.256 2189.39,385.1 2191.43,389.683 2193.47,396.165 2195.52,404.822 2197.56,416.106 2199.6,430.779 2201.65,450.219 2203.69,477.249 2205.73,519.208 2207.77,610.181 2209.82,610.456 2211.86,521.951 2213.9,482.078 2215.95,457.078 2217.99,439.651 2220.03,426.982 2222.07,417.697 2224.12,411.038 2226.16,406.551 2228.2,403.962 2230.25,403.112 2232.29,403.922 2234.33,406.386 2236.37,410.562 2238.42,416.59 2240.46,424.714 2242.5,435.334 2244.55,449.12 2246.59,467.256 2248.63,492.079 2250.67,529.234 2252.72,599.888 2254.76,684.333 2256.8,558.136 2258.85,512.175 2260.89,484.619 2262.93,465.747 2264.97,452.121 2267.02,442.136 2269.06,434.923 2271.1,429.974 2273.15,426.978 2275.19,425.752 2277.23,426.202 2279.27,428.305 2281.32,432.105 2283.36,437.722 2285.4,445.373 2287.45,455.417 2289.49,468.451 2291.53,485.508 "/>
<polyline clip-path="url(#clip401)" style="stroke:#e26f46; stroke-linecap:round; stroke-linejoin:round; stroke-width:4; stroke-opacity:1; fill:none" points="250.72,187.794 252.763,189.055 254.806,190.317 256.849,191.578 258.892,192.839 260.935,194.101 262.977,195.362 265.02,196.623 267.063,197.885 269.106,199.146 271.149,200.407 273.192,201.669 275.235,202.93 277.277,204.191 279.32,205.453 281.363,206.714 283.406,207.975 285.449,209.237 287.492,210.498 289.534,211.759 291.577,213.021 293.62,214.282 295.663,215.543 297.706,216.805 299.749,218.066 301.792,219.327 303.834,220.589 305.877,221.85 307.92,223.111 309.963,224.373 312.006,225.634 314.049,226.895 316.092,228.157 318.134,229.418 320.177,230.68 322.22,231.941 324.263,233.202 326.306,234.464 328.349,235.725 330.392,236.986 332.434,238.248 334.477,239.509 336.52,240.77 338.563,242.032 340.606,243.293 342.649,244.554 344.692,245.816 346.734,247.077 348.777,248.338 350.82,249.6 352.863,250.861 354.906,252.122 356.949,253.384 358.992,254.645 361.034,255.906 363.077,257.168 365.12,258.429 367.163,259.69 369.206,260.952 371.249,262.213 373.292,263.474 375.334,264.736 377.377,265.997 379.42,267.258 381.463,268.52 383.506,269.781 385.549,271.042 387.591,272.304 389.634,273.565 391.677,274.826 393.72,276.088 395.763,277.349 397.806,278.61 399.849,279.872 401.891,281.133 403.934,282.394 405.977,283.656 408.02,284.917 410.063,286.178 412.106,287.44 414.149,288.701 416.191,289.963 418.234,291.224 420.277,292.485 422.32,293.747 424.363,295.008 426.406,296.269 428.449,297.531 430.491,298.792 432.534,300.053 434.577,301.315 436.62,302.576 438.663,303.837 440.706,305.099 442.749,306.36 444.791,307.621 446.834,308.883 448.877,310.144 450.92,311.405 452.963,312.667 455.006,313.928 457.049,315.189 459.091,316.451 461.134,317.712 463.177,318.973 465.22,320.235 467.263,321.496 469.306,322.757 471.349,324.019 473.391,325.28 475.434,326.541 477.477,327.803 479.52,329.064 481.563,330.325 483.606,331.587 485.648,332.848 487.691,334.109 489.734,335.371 491.777,336.632 493.82,337.893 495.863,339.155 497.906,340.416 499.948,341.677 501.991,342.939 504.034,344.2 506.077,345.461 508.12,346.723 510.163,347.984 512.206,349.246 514.248,350.507 516.291,351.768 518.334,353.03 520.377,354.291 522.42,355.552 524.463,356.814 526.506,358.075 528.548,359.336 530.591,360.598 532.634,361.859 534.677,363.12 536.72,364.382 538.763,365.643 540.806,366.904 542.848,368.166 544.891,369.427 546.934,370.688 548.977,371.95 551.02,373.211 553.063,374.472 555.106,375.734 557.148,376.995 559.191,378.256 561.234,379.518 563.277,380.779 565.32,382.04 567.363,383.302 569.406,384.563 571.448,385.824 573.491,387.086 575.534,388.347 577.577,389.608 579.62,390.87 581.663,392.131 583.705,393.392 585.748,394.654 587.791,395.915 589.834,397.176 591.877,398.438 593.92,399.699 595.963,400.96 598.005,402.222 600.048,403.483 602.091,404.744 604.134,406.006 606.177,407.267 608.22,408.529 610.263,409.79 612.305,411.051 614.348,412.313 616.391,413.574 618.434,414.835 620.477,416.097 622.52,417.358 624.563,418.619 626.605,419.881 628.648,421.142 630.691,422.403 632.734,423.665 634.777,424.926 636.82,426.187 638.863,427.449 640.905,428.71 642.948,429.971 644.991,431.233 647.034,432.494 649.077,433.755 651.12,435.017 653.163,436.278 655.205,437.539 657.248,438.801 659.291,440.062 661.334,441.323 663.377,442.585 665.42,443.846 667.463,445.107 669.505,446.369 671.548,447.63 673.591,448.891 675.634,450.153 677.677,451.414 679.72,452.675 681.762,453.937 683.805,455.198 685.848,456.459 687.891,457.721 689.934,458.982 691.977,460.243 694.02,461.505 696.062,462.766 698.105,464.027 700.148,465.289 702.191,466.55 704.234,467.812 706.277,469.073 708.32,470.334 710.362,471.596 712.405,472.857 714.448,474.118 716.491,475.38 718.534,476.641 720.577,477.902 722.62,479.164 724.662,480.425 726.705,481.686 728.748,482.948 730.791,484.209 732.834,485.47 734.877,486.732 736.92,487.993 738.962,489.254 741.005,490.516 743.048,491.777 745.091,493.038 747.134,494.3 749.177,495.561 751.22,496.822 753.262,498.084 755.305,499.345 757.348,500.606 759.391,501.868 761.434,503.129 763.477,504.39 765.52,505.652 767.562,506.913 769.605,508.174 771.648,509.436 773.691,510.697 775.734,511.958 777.777,513.22 779.819,514.481 781.862,515.742 783.905,517.004 785.948,518.265 787.991,519.526 790.034,520.788 792.077,522.049 794.119,523.311 796.162,524.572 798.205,525.833 800.248,527.095 802.291,528.356 804.334,529.617 806.377,530.879 808.419,532.14 810.462,533.401 812.505,534.663 814.548,535.924 816.591,537.185 818.634,538.447 820.677,539.708 822.719,540.969 824.762,542.231 826.805,543.492 828.848,544.753 830.891,546.015 832.934,547.276 834.977,548.537 837.019,549.799 839.062,551.06 841.105,552.321 843.148,553.583 845.191,554.844 847.234,556.105 849.277,557.367 851.319,558.628 853.362,559.889 855.405,561.151 857.448,562.412 859.491,563.673 861.534,564.935 863.577,566.196 865.619,567.457 867.662,568.719 869.705,569.98 871.748,571.241 873.791,572.503 875.834,573.764 877.876,575.025 879.919,576.287 881.962,577.548 884.005,578.809 886.048,580.071 888.091,581.332 890.134,582.594 892.176,583.855 894.219,585.116 896.262,586.378 898.305,587.639 900.348,588.9 902.391,590.162 904.434,591.423 906.476,592.684 908.519,593.946 910.562,595.207 912.605,596.468 914.648,597.73 916.691,598.991 918.734,600.252 920.776,601.514 922.819,602.775 924.862,604.036 926.905,605.298 928.948,606.559 930.991,607.82 933.034,609.082 935.076,610.343 937.119,611.604 939.162,612.866 941.205,614.127 943.248,615.388 945.291,616.65 947.334,617.911 949.376,619.172 951.419,620.434 953.462,621.695 955.505,622.956 957.548,624.218 959.591,625.479 961.634,626.74 963.676,628.002 965.719,629.263 967.762,630.524 969.805,631.786 971.848,633.047 973.891,634.308 975.933,635.57 977.976,636.831 980.019,638.092 982.062,639.354 984.105,640.615 986.148,641.877 988.191,643.138 990.233,644.399 992.276,645.661 994.319,646.922 996.362,648.183 998.405,649.445 1000.45,650.706 1002.49,651.967 1004.53,653.229 1006.58,654.49 1008.62,655.751 1010.66,657.013 1012.7,658.274 1014.75,659.535 1016.79,660.797 1018.83,662.058 1020.88,663.319 1022.92,664.581 1024.96,665.842 1027,667.103 1029.05,668.365 1031.09,669.626 1033.13,670.887 1035.18,672.149 1037.22,673.41 1039.26,674.671 1041.3,675.933 1043.35,677.194 1045.39,678.455 1047.43,679.717 1049.48,680.978 1051.52,682.239 1053.56,683.501 1055.6,684.762 1057.65,686.023 1059.69,687.285 1061.73,688.546 1063.78,689.807 1065.82,691.069 1067.86,692.33 1069.9,693.591 1071.95,694.853 1073.99,696.114 1076.03,697.375 1078.08,698.637 1080.12,699.898 1082.16,701.16 1084.2,702.421 1086.25,703.682 1088.29,704.944 1090.33,706.205 1092.38,707.466 1094.42,708.728 1096.46,709.989 1098.5,711.25 1100.55,712.512 1102.59,713.773 1104.63,715.034 1106.68,716.296 1108.72,717.557 1110.76,718.818 1112.8,720.08 1114.85,721.341 1116.89,722.602 1118.93,723.864 1120.98,725.125 1123.02,726.386 1125.06,727.648 1127.1,728.909 1129.15,730.17 1131.19,731.432 1133.23,732.693 1135.28,733.954 1137.32,735.216 1139.36,736.477 1141.4,737.738 1143.45,739 1145.49,740.261 1147.53,741.522 1149.58,742.784 1151.62,744.045 1153.66,745.306 1155.7,746.568 1157.75,747.829 1159.79,749.09 1161.83,750.352 1163.88,751.613 1165.92,752.874 1167.96,754.136 1170,755.397 1172.05,756.658 1174.09,757.92 1176.13,759.181 1178.18,760.443 1180.22,761.704 1182.26,762.965 1184.3,764.227 1186.35,765.488 1188.39,766.749 1190.43,768.011 1192.48,769.272 1194.52,770.533 1196.56,771.795 1198.6,773.056 1200.65,774.317 1202.69,775.579 1204.73,776.84 1206.78,778.101 1208.82,779.363 1210.86,780.624 1212.9,781.885 1214.95,783.147 1216.99,784.408 1219.03,785.669 1221.08,786.931 1223.12,788.192 1225.16,789.453 1227.2,790.715 1229.25,791.976 1231.29,793.237 1233.33,794.499 1235.38,795.76 1237.42,797.021 1239.46,798.283 1241.5,799.544 1243.55,800.805 1245.59,802.067 1247.63,803.328 1249.68,804.589 1251.72,805.851 1253.76,807.112 1255.8,808.373 1257.85,809.635 1259.89,810.896 1261.93,812.157 1263.98,813.419 1266.02,814.68 1268.06,815.941 1270.1,817.203 1272.15,818.464 1274.19,819.726 1276.23,820.987 1278.28,822.248 1280.32,823.51 1282.36,824.771 1284.4,826.032 1286.45,827.294 1288.49,828.555 1290.53,829.816 1292.58,831.078 1294.62,832.339 1296.66,833.6 1298.7,834.862 1300.75,836.123 1302.79,837.384 1304.83,838.646 1306.88,839.907 1308.92,841.168 1310.96,842.43 1313,843.691 1315.05,844.952 1317.09,846.214 1319.13,847.475 1321.18,848.736 1323.22,849.998 1325.26,851.259 1327.3,852.52 1329.35,853.782 1331.39,855.043 1333.43,856.304 1335.48,857.566 1337.52,858.827 1339.56,860.088 1341.6,861.35 1343.65,862.611 1345.69,863.872 1347.73,865.134 1349.78,866.395 1351.82,867.656 1353.86,868.918 1355.9,870.179 1357.95,871.44 1359.99,872.702 1362.03,873.963 1364.08,875.225 1366.12,876.486 1368.16,877.747 1370.2,879.009 1372.25,880.27 1374.29,881.531 1376.33,882.793 1378.38,884.054 1380.42,885.315 1382.46,886.577 1384.5,887.838 1386.55,889.099 1388.59,890.361 1390.63,891.622 1392.68,892.883 1394.72,894.145 1396.76,895.406 1398.8,896.667 1400.85,897.929 1402.89,899.19 1404.93,900.451 1406.98,901.713 1409.02,902.974 1411.06,904.235 1413.1,905.497 1415.15,906.758 1417.19,908.019 1419.23,909.281 1421.28,910.542 1423.32,911.803 1425.36,913.065 1427.4,914.326 1429.45,915.587 1431.49,916.849 1433.53,918.11 1435.58,919.371 1437.62,920.633 1439.66,921.894 1441.7,923.155 1443.75,924.417 1445.79,925.678 1447.83,926.939 1449.88,928.201 1451.92,929.462 1453.96,930.723 1456,931.985 1458.05,933.246 1460.09,934.508 1462.13,935.769 1464.18,937.03 1466.22,938.292 1468.26,939.553 1470.3,940.814 1472.35,942.076 1474.39,943.337 1476.43,944.598 1478.48,945.86 1480.52,947.121 1482.56,948.382 1484.6,949.644 1486.65,950.905 1488.69,952.166 1490.73,953.428 1492.78,954.689 1494.82,955.95 1496.86,957.212 1498.9,958.473 1500.95,959.734 1502.99,960.996 1505.03,962.257 1507.08,963.518 1509.12,964.78 1511.16,966.041 1513.2,967.302 1515.25,968.564 1517.29,969.825 1519.33,971.086 1521.38,972.348 1523.42,973.609 1525.46,974.87 1527.5,976.132 1529.55,977.393 1531.59,978.654 1533.63,979.916 1535.68,981.177 1537.72,982.438 1539.76,983.7 1541.8,984.961 1543.85,986.222 1545.89,987.484 1547.93,988.745 1549.98,990.006 1552.02,991.268 1554.06,992.529 1556.1,993.791 1558.15,995.052 1560.19,996.313 1562.23,997.575 1564.28,998.836 1566.32,1000.1 1568.36,1001.36 1570.4,1002.62 1572.45,1003.88 1574.49,1005.14 1576.53,1006.4 1578.58,1007.67 1580.62,1008.93 1582.66,1010.19 1584.7,1011.45 1586.75,1012.71 1588.79,1013.97 1590.83,1015.23 1592.88,1016.49 1594.92,1017.76 1596.96,1019.02 1599,1020.28 1601.05,1021.54 1603.09,1022.8 1605.13,1024.06 1607.18,1025.32 1609.22,1026.59 1611.26,1027.85 1613.3,1029.11 1615.35,1030.37 1617.39,1031.63 1619.43,1032.89 1621.48,1034.15 1623.52,1035.41 1625.56,1036.68 1627.6,1037.94 1629.65,1039.2 1631.69,1040.46 1633.73,1041.72 1635.78,1042.98 1637.82,1044.24 1639.86,1045.51 1641.9,1046.77 1643.95,1048.03 1645.99,1049.29 1648.03,1050.55 1650.08,1051.81 1652.12,1053.07 1654.16,1054.33 1656.2,1055.6 1658.25,1056.86 1660.29,1058.12 1662.33,1059.38 1664.38,1060.64 1666.42,1061.9 1668.46,1063.16 1670.5,1064.43 1672.55,1065.69 1674.59,1066.95 1676.63,1068.21 1678.68,1069.47 1680.72,1070.73 1682.76,1071.99 1684.8,1073.25 1686.85,1074.52 1688.89,1075.78 1690.93,1077.04 1692.98,1078.3 1695.02,1079.56 1697.06,1080.82 1699.1,1082.08 1701.15,1083.35 1703.19,1084.61 1705.23,1085.87 1707.28,1087.13 1709.32,1088.39 1711.36,1089.65 1713.4,1090.91 1715.45,1092.18 1717.49,1093.44 1719.53,1094.7 1721.58,1095.96 1723.62,1097.22 1725.66,1098.48 1727.7,1099.74 1729.75,1101 1731.79,1102.27 1733.83,1103.53 1735.88,1104.79 1737.92,1106.05 1739.96,1107.31 1742,1108.57 1744.05,1109.83 1746.09,1111.1 1748.13,1112.36 1750.18,1113.62 1752.22,1114.88 1754.26,1116.14 1756.3,1117.4 1758.35,1118.66 1760.39,1119.92 1762.43,1121.19 1764.48,1122.45 1766.52,1123.71 1768.56,1124.97 1770.6,1126.23 1772.65,1127.49 1774.69,1128.75 1776.73,1130.02 1778.78,1131.28 1780.82,1132.54 1782.86,1133.8 1784.9,1135.06 1786.95,1136.32 1788.99,1137.58 1791.03,1138.84 1793.08,1140.11 1795.12,1141.37 1797.16,1142.63 1799.2,1143.89 1801.25,1145.15 1803.29,1146.41 1805.33,1147.67 1807.38,1148.94 1809.42,1150.2 1811.46,1151.46 1813.5,1152.72 1815.55,1153.98 1817.59,1155.24 1819.63,1156.5 1821.68,1157.76 1823.72,1159.03 1825.76,1160.29 1827.8,1161.55 1829.85,1162.81 1831.89,1164.07 1833.93,1165.33 1835.98,1166.59 1838.02,1167.86 1840.06,1169.12 1842.1,1170.38 1844.15,1171.64 1846.19,1172.9 1848.23,1174.16 1850.28,1175.42 1852.32,1176.68 1854.36,1177.95 1856.4,1179.21 1858.45,1180.47 1860.49,1181.73 1862.53,1182.99 1864.58,1184.25 1866.62,1185.51 1868.66,1186.78 1870.7,1188.04 1872.75,1189.3 1874.79,1190.56 1876.83,1191.82 1878.88,1193.08 1880.92,1194.34 1882.96,1195.6 1885,1196.87 1887.05,1198.13 1889.09,1199.39 1891.13,1200.65 1893.18,1201.91 1895.22,1203.17 1897.26,1204.43 1899.3,1205.7 1901.35,1206.96 1903.39,1208.22 1905.43,1209.48 1907.47,1210.74 1909.52,1212 1911.56,1213.26 1913.6,1214.53 1915.65,1215.79 1917.69,1217.05 1919.73,1218.31 1921.77,1219.57 1923.82,1220.83 1925.86,1222.09 1927.9,1223.35 1929.95,1224.62 1931.99,1225.88 1934.03,1227.14 1936.07,1228.4 1938.12,1229.66 1940.16,1230.92 1942.2,1232.18 1944.25,1233.45 1946.29,1234.71 1948.33,1235.97 1950.37,1237.23 1952.42,1238.49 1954.46,1239.75 1956.5,1241.01 1958.55,1242.27 1960.59,1243.54 1962.63,1244.8 1964.67,1246.06 1966.72,1247.32 1968.76,1248.58 1970.8,1249.84 1972.85,1251.1 1974.89,1252.37 1976.93,1253.63 1978.97,1254.89 1981.02,1256.15 1983.06,1257.41 1985.1,1258.67 1987.15,1259.93 1989.19,1261.19 1991.23,1262.46 1993.27,1263.72 1995.32,1264.98 1997.36,1266.24 1999.4,1267.5 2001.45,1268.76 2003.49,1270.02 2005.53,1271.29 2007.57,1272.55 2009.62,1273.81 2011.66,1275.07 2013.7,1276.33 2015.75,1277.59 2017.79,1278.85 2019.83,1280.11 2021.87,1281.38 2023.92,1282.64 2025.96,1283.9 2028,1285.16 2030.05,1286.42 2032.09,1287.68 2034.13,1288.94 2036.17,1290.21 2038.22,1291.47 2040.26,1292.73 2042.3,1293.99 2044.35,1295.25 2046.39,1296.51 2048.43,1297.77 2050.47,1299.03 2052.52,1300.3 2054.56,1301.56 2056.6,1302.82 2058.65,1304.08 2060.69,1305.34 2062.73,1306.6 2064.77,1307.86 2066.82,1309.13 2068.86,1310.39 2070.9,1311.65 2072.95,1312.91 2074.99,1314.17 2077.03,1315.43 2079.07,1316.69 2081.12,1317.96 2083.16,1319.22 2085.2,1320.48 2087.25,1321.74 2089.29,1323 2091.33,1324.26 2093.37,1325.52 2095.42,1326.78 2097.46,1328.05 2099.5,1329.31 2101.55,1330.57 2103.59,1331.83 2105.63,1333.09 2107.67,1334.35 2109.72,1335.61 2111.76,1336.88 2113.8,1338.14 2115.85,1339.4 2117.89,1340.66 2119.93,1341.92 2121.97,1343.18 2124.02,1344.44 2126.06,1345.7 2128.1,1346.97 2130.15,1348.23 2132.19,1349.49 2134.23,1350.75 2136.27,1352.01 2138.32,1353.27 2140.36,1354.53 2142.4,1355.8 2144.45,1357.06 2146.49,1358.32 2148.53,1359.58 2150.57,1360.84 2152.62,1362.1 2154.66,1363.36 2156.7,1364.62 2158.75,1365.89 2160.79,1367.15 2162.83,1368.41 2164.87,1369.67 2166.92,1370.93 2168.96,1372.19 2171,1373.45 2173.05,1374.72 2175.09,1375.98 2177.13,1377.24 2179.17,1378.5 2181.22,1379.76 2183.26,1381.02 2185.3,1382.28 2187.35,1383.54 2189.39,1384.81 2191.43,1386.07 2193.47,1387.33 2195.52,1388.59 2197.56,1389.85 2199.6,1391.11 2201.65,1392.37 2203.69,1393.64 2205.73,1394.9 2207.77,1396.16 2209.82,1397.42 2211.86,1398.68 2213.9,1399.94 2215.95,1401.2 2217.99,1402.46 2220.03,1403.73 2222.07,1404.99 2224.12,1406.25 2226.16,1407.51 2228.2,1408.77 2230.25,1410.03 2232.29,1411.29 2234.33,1412.56 2236.37,1413.82 2238.42,1415.08 2240.46,1416.34 2242.5,1417.6 2244.55,1418.86 2246.59,1420.12 2248.63,1421.38 2250.67,1422.65 2252.72,1423.91 2254.76,1425.17 2256.8,1426.43 2258.85,1427.69 2260.89,1428.95 2262.93,1430.21 2264.97,1431.48 2267.02,1432.74 2269.06,1434 2271.1,1435.26 2273.15,1436.52 2275.19,1437.78 2277.23,1439.04 2279.27,1440.31 2281.32,1441.57 2283.36,1442.83 2285.4,1444.09 2287.45,1445.35 2289.49,1446.61 2291.53,1447.87 "/>
<path clip-path="url(#clip400)" d="M2011.89 324.425 L2280.65 324.425 L2280.65 168.905 L2011.89 168.905  Z" fill="#ffffff" fill-rule="evenodd" fill-opacity="1"/>
<polyline clip-path="url(#clip400)" style="stroke:#000000; stroke-linecap:round; stroke-linejoin:round; stroke-width:4; stroke-opacity:1; fill:none" points="2011.89,324.425 2280.65,324.425 2280.65,168.905 2011.89,168.905 2011.89,324.425 "/>
<polyline clip-path="url(#clip400)" style="stroke:#009af9; stroke-linecap:round; stroke-linejoin:round; stroke-width:4; stroke-opacity:1; fill:none" points="2035.93,220.745 2180.14,220.745 "/>
<path clip-path="url(#clip400)" d="M2218.02 240.432 Q2216.22 245.062 2214.5 246.474 Q2212.79 247.886 2209.92 247.886 L2206.52 247.886 L2206.52 244.321 L2209.02 244.321 Q2210.78 244.321 2211.75 243.488 Q2212.72 242.654 2213.9 239.552 L2214.67 237.608 L2204.18 212.099 L2208.69 212.099 L2216.8 232.377 L2224.9 212.099 L2229.41 212.099 L2218.02 240.432 Z" fill="#000000" fill-rule="nonzero" fill-opacity="1" /><path clip-path="url(#clip400)" d="M2236.7 234.089 L2244.34 234.089 L2244.34 207.724 L2236.03 209.391 L2236.03 205.131 L2244.3 203.465 L2248.97 203.465 L2248.97 234.089 L2256.61 234.089 L2256.61 238.025 L2236.7 238.025 L2236.7 234.089 Z" fill="#000000" fill-rule="nonzero" fill-opacity="1" /><polyline clip-path="url(#clip400)" style="stroke:#e26f46; stroke-linecap:round; stroke-linejoin:round; stroke-width:4; stroke-opacity:1; fill:none" points="2035.93,272.585 2180.14,272.585 "/>
<path clip-path="url(#clip400)" d="M2218.02 292.272 Q2216.22 296.902 2214.5 298.314 Q2212.79 299.726 2209.92 299.726 L2206.52 299.726 L2206.52 296.161 L2209.02 296.161 Q2210.78 296.161 2211.75 295.328 Q2212.72 294.494 2213.9 291.392 L2214.67 289.448 L2204.18 263.939 L2208.69 263.939 L2216.8 284.217 L2224.9 263.939 L2229.41 263.939 L2218.02 292.272 Z" fill="#000000" fill-rule="nonzero" fill-opacity="1" /><path clip-path="url(#clip400)" d="M2239.92 285.929 L2256.24 285.929 L2256.24 289.865 L2234.3 289.865 L2234.3 285.929 Q2236.96 283.175 2241.54 278.545 Q2246.15 273.893 2247.33 272.55 Q2249.57 270.027 2250.45 268.291 Q2251.36 266.531 2251.36 264.842 Q2251.36 262.087 2249.41 260.351 Q2247.49 258.615 2244.39 258.615 Q2242.19 258.615 2239.74 259.379 Q2237.31 260.143 2234.53 261.694 L2234.53 256.971 Q2237.35 255.837 2239.81 255.258 Q2242.26 254.68 2244.3 254.68 Q2249.67 254.68 2252.86 257.365 Q2256.06 260.05 2256.06 264.541 Q2256.06 266.67 2255.25 268.592 Q2254.46 270.49 2252.35 273.082 Q2251.77 273.754 2248.67 276.971 Q2245.57 280.166 2239.92 285.929 Z" fill="#000000" fill-rule="nonzero" fill-opacity="1" /></svg>
